<svg xmlns="http://www.w3.org/2000/svg" viewBox="0 0 189.27 20" fill="#000000">
<path d="M10 0C11.7873 0 12.6809 0.000420516 13.3604 0.355469C13.9253 0.650693 14.3864 1.11181 14.6816 1.67676C15.2205 2.70798 15.4915 3.22516 15.5088 3.25684C16.2768 4.65556 15.3444 3.72316 16.7432 4.49121C16.7741 4.50813 17.2913 4.77911 18.3232 5.31836C18.8882 5.61357 19.3493 6.07473 19.6445 6.63965C19.9996 7.3191 20 8.21272 20 10C20 11.7873 19.9996 12.6809 19.6445 13.3604C19.3493 13.9253 18.8882 14.3864 18.3232 14.6816C17.2883 15.2225 16.7704 15.4933 16.7422 15.5088C15.3443 16.2763 16.2763 15.3444 15.5088 16.7422C15.4933 16.7704 15.2224 17.2883 14.6816 18.3232C14.3864 18.8882 13.9253 19.3493 13.3604 19.6445C12.6809 19.9996 11.7873 20 10 20C8.21267 20 7.31911 19.9996 6.63965 19.6445C6.07472 19.3493 5.61358 18.8882 5.31836 18.3232C4.77899 17.291 4.50801 16.7739 4.49121 16.7432C3.72316 15.3444 4.65556 16.2768 3.25684 15.5088C3.22537 15.4916 2.7082 15.2206 1.67676 14.6816C1.1118 14.3864 0.650691 13.9253 0.355469 13.3604C0.00041992 12.6809 -7.81053e-08 11.7873 0 10C7.91424e-08 8.21272 0.000424492 7.3191 0.355469 6.63965C0.650695 6.07473 1.11184 5.61357 1.67676 5.31836C2.70868 4.77913 3.22584 4.50815 3.25684 4.49121C4.65555 3.72317 3.72317 4.65555 4.49121 3.25684C4.50853 3.22511 4.77953 2.70793 5.31836 1.67676C5.61359 1.11181 6.0747 0.650691 6.63965 0.355469C7.31911 0.000419892 8.21267 0 10 0ZM9.08887 4.40527C6.88105 4.40527 5.77674 4.405 5.09082 5.09082C4.40491 5.77673 4.40527 6.88094 4.40527 9.08887V10.9111C4.40527 13.1191 4.40491 14.2233 5.09082 14.9092C5.77674 15.5951 6.88099 15.5947 9.08887 15.5947H10.9111C13.119 15.5947 14.2233 15.5951 14.9092 14.9092C15.595 14.2233 15.5947 13.119 15.5947 10.9111V9.08887C15.5947 6.88099 15.5951 5.77674 14.9092 5.09082C14.2233 4.40491 13.119 4.40527 10.9111 4.40527H9.08887Z"/>
<g transform="translate(31 2.5) scale(0.96839)">
<path d="M160.262 9.46825L158.022 9.45276C157.742 9.45082 157.503 9.35583 157.304 9.16778C157.119 8.96649 157.027 8.72585 157.029 8.44586L157.031 8.18587C157.032 7.99921 156.967 7.83208 156.834 7.6845C156.702 7.52358 156.503 7.4422 156.236 7.44035L156.036 7.43897C155.756 7.43703 155.517 7.34204 155.318 7.15399C155.133 6.95271 155.041 6.71207 155.043 6.43207L155.059 4.07213C155.061 3.79214 155.156 3.55945 155.344 3.37408C155.546 3.17547 155.786 3.07713 156.066 3.07907L156.326 3.08087C156.513 3.08216 156.68 3.01665 156.828 2.88433C156.988 2.75211 157.07 2.55267 157.072 2.28601L157.073 2.08601C157.075 1.80602 157.17 1.57334 157.358 1.38797C157.559 1.18935 157.8 1.09102 158.08 1.09295L160.44 1.10928C160.72 1.11122 160.953 1.21283 161.138 1.41412C161.337 1.60216 161.435 1.83618 161.433 2.11618L161.431 2.37617C161.43 2.56283 161.495 2.73662 161.628 2.89754C161.76 3.04513 161.959 3.11984 162.226 3.12169L162.426 3.12307C162.706 3.12501 162.939 3.22662 163.124 3.42791C163.323 3.61595 163.421 3.84997 163.419 4.12996L163.417 4.48996C163.415 4.75662 163.313 4.98925 163.112 5.18786C162.924 5.38657 162.69 5.48495 162.41 5.48301L162.05 5.48052C161.77 5.47859 161.53 5.38359 161.332 5.19555C161.146 4.99426 161.055 4.75362 161.057 4.47363L161.058 4.23363C161.062 3.72698 160.81 3.4719 160.304 3.46839L158.184 3.45373C157.677 3.45022 157.422 3.7018 157.418 4.20845L157.404 6.3284C157.4 6.83506 157.652 7.09014 158.158 7.09364L160.398 7.10914C160.678 7.11108 160.911 7.21269 161.096 7.41397C161.295 7.60202 161.393 7.83604 161.391 8.11603L161.39 8.37603C161.388 8.56269 161.454 8.73648 161.586 8.8974C161.718 9.04498 161.918 9.1197 162.185 9.12154L162.385 9.12293C162.665 9.12486 162.897 9.22648 163.082 9.42776C163.281 9.61581 163.38 9.84983 163.378 10.1298L163.361 12.4898C163.359 12.7698 163.258 13.0091 163.056 13.2077C162.868 13.393 162.634 13.4848 162.354 13.4828L162.094 13.481C161.908 13.4797 161.734 13.5452 161.573 13.6774C161.425 13.8097 161.351 14.0092 161.349 14.2759L161.347 14.4759C161.346 14.7559 161.244 14.9952 161.042 15.1938C160.855 15.3792 160.621 15.4709 160.341 15.4689L157.981 15.4526C157.701 15.4507 157.461 15.3557 157.263 15.1676C157.077 14.9664 156.986 14.7257 156.988 14.4457L156.989 14.1857C156.991 13.9991 156.925 13.8319 156.793 13.6844C156.661 13.5234 156.461 13.4421 156.195 13.4402L155.995 13.4388C155.715 13.4369 155.475 13.3419 155.276 13.1538C155.091 12.9526 155 12.7119 155.001 12.4319L155.004 12.0719C155.006 11.8053 155.101 11.5726 155.289 11.3739C155.49 11.1753 155.731 11.0769 156.011 11.0789L156.371 11.0814C156.651 11.0833 156.883 11.1849 157.069 11.3862C157.267 11.5743 157.366 11.8083 157.364 12.0883L157.362 12.3283C157.359 12.8349 157.61 13.09 158.117 13.0935L160.237 13.1082C160.744 13.1117 160.999 12.8601 161.002 12.3534L161.017 10.2335C161.02 9.72684 160.769 9.47176 160.262 9.46825Z"/>
<path d="M144.588 14.3599L144.673 2.00023C144.675 1.72024 144.77 1.48755 144.958 1.30218C145.16 1.10357 145.4 1.00523 145.68 1.00717L150.04 1.03733C150.32 1.03927 150.553 1.14088 150.738 1.34217C150.937 1.53022 151.035 1.76423 151.033 2.04423L151.031 2.30422C151.03 2.49088 151.096 2.66467 151.228 2.82559C151.36 2.97318 151.56 3.04789 151.826 3.04974L152.026 3.05112C152.306 3.05306 152.539 3.15467 152.724 3.35596C152.923 3.544 153.021 3.77802 153.019 4.05802L153.003 6.41796C153.001 6.69795 152.899 6.93726 152.698 7.13587C152.51 7.32124 152.276 7.41295 151.996 7.41102L151.596 7.40825C151.449 7.40724 151.309 7.4596 151.175 7.56534C151.054 7.67117 150.993 7.83742 150.992 8.06408L150.989 8.44407C150.988 8.59074 151.04 8.7311 151.146 8.86517C151.252 8.98591 151.418 9.04706 151.645 9.04863L151.985 9.05098C152.265 9.05292 152.497 9.15453 152.683 9.35581C152.881 9.54386 152.98 9.77788 152.978 10.0579L152.948 14.4178C152.946 14.6844 152.844 14.9171 152.643 15.1157C152.455 15.3144 152.221 15.4128 151.941 15.4108L151.581 15.4083C151.301 15.4064 151.061 15.3114 150.863 15.1234C150.677 14.9221 150.586 14.6814 150.588 14.4014L150.617 10.1615C150.621 9.65489 150.369 9.39981 149.862 9.3963L147.782 9.38191C147.502 9.37998 147.295 9.44521 147.161 9.57762C147.04 9.71012 146.979 9.9097 146.977 10.1764L146.948 14.3763C146.946 14.6429 146.844 14.8756 146.643 15.0742C146.455 15.2729 146.221 15.3713 145.941 15.3693L145.581 15.3668C145.301 15.3649 145.062 15.2699 144.863 15.0819C144.678 14.8806 144.586 14.6399 144.588 14.3599ZM147.799 7.02197L149.879 7.03636C150.385 7.03987 150.64 6.78829 150.644 6.28164L150.659 4.16169C150.662 3.65503 150.41 3.39995 149.904 3.39645L147.824 3.38206C147.291 3.37837 147.022 3.64318 147.018 4.1765L147.004 6.21646C147.002 6.49645 147.068 6.70357 147.2 6.83782C147.332 6.95874 147.532 7.02013 147.799 7.02197Z"/>
<path d="M134.202 12.288L134.26 3.92823C134.262 3.64824 134.357 3.41556 134.545 3.23019C134.746 3.03157 134.987 2.93324 135.267 2.93517L135.527 2.93697C135.713 2.93826 135.88 2.87275 136.028 2.74044C136.189 2.60821 136.27 2.40877 136.272 2.14211L136.274 1.94212C136.276 1.66212 136.37 1.42944 136.558 1.24407C136.76 1.04546 137 0.947121 137.28 0.949058L139.64 0.965385C139.92 0.967322 140.153 1.06893 140.338 1.27022C140.537 1.45827 140.635 1.69229 140.633 1.97228L140.632 2.23227C140.63 2.41894 140.696 2.59273 140.828 2.75364C140.96 2.90123 141.16 2.97594 141.427 2.97779L141.627 2.97917C141.907 2.98111 142.139 3.08272 142.324 3.28401C142.523 3.47205 142.622 3.70607 142.62 3.98607L142.562 12.3459C142.56 12.6259 142.458 12.8652 142.257 13.0638C142.069 13.2491 141.835 13.3409 141.555 13.3389L141.295 13.3371C141.108 13.3358 140.934 13.4013 140.773 13.5335C140.626 13.6658 140.551 13.8653 140.549 14.132L140.548 14.332C140.546 14.612 140.444 14.8513 140.243 15.0499C140.055 15.2353 139.821 15.327 139.541 15.325L137.181 15.3087C136.901 15.3068 136.662 15.2118 136.463 15.0237C136.278 14.8225 136.186 14.5818 136.188 14.3018L136.19 14.0418C136.191 13.8552 136.126 13.688 135.993 13.5405C135.861 13.3795 135.662 13.2982 135.395 13.2963L135.195 13.2949C134.915 13.293 134.676 13.198 134.477 13.01C134.292 12.8087 134.2 12.568 134.202 12.288ZM136.619 4.06456L136.563 12.1844C136.559 12.691 136.811 12.9461 137.317 12.9496L139.437 12.9643C139.944 12.9678 140.199 12.7162 140.203 12.2095L140.259 4.08974C140.262 3.58308 140.011 3.328 139.504 3.3245L137.384 3.30983C136.877 3.30633 136.622 3.5579 136.619 4.06456Z"/>
<path d="M127.149 15.2393L126.789 15.2368C126.509 15.2349 126.27 15.1399 126.071 14.9518C125.886 14.7506 125.794 14.5099 125.796 14.2299L125.867 4.03017C125.87 3.49685 125.606 3.22835 125.072 3.22466L122.872 3.20944C122.606 3.20759 122.373 3.11265 122.174 2.9246C121.976 2.72322 121.877 2.48254 121.879 2.20254L121.882 1.84255C121.884 1.56256 121.979 1.32988 122.167 1.1445C122.368 0.945892 122.609 0.847555 122.889 0.849492L131.248 0.907327C131.515 0.909172 131.748 1.01078 131.946 1.21216C132.145 1.40021 132.243 1.63423 132.241 1.91422L132.239 2.27421C132.237 2.55421 132.135 2.79351 131.934 2.99212C131.746 3.17749 131.512 3.26921 131.232 3.26727L129.032 3.25205C128.499 3.24836 128.23 3.51318 128.227 4.0465L128.156 14.2463C128.154 14.5129 128.053 14.7456 127.851 14.9442C127.663 15.1429 127.429 15.2412 127.149 15.2393Z"/>
<path d="M112.75 15.1397L112.39 15.1372C112.11 15.1353 111.87 15.0403 111.671 14.8522C111.486 14.6509 111.395 14.4103 111.396 14.1303L111.468 3.77055C111.47 3.49056 111.565 3.25788 111.753 3.07251C111.954 2.8739 112.195 2.77556 112.475 2.7775L112.735 2.7793C112.922 2.78059 113.089 2.71507 113.236 2.58276C113.397 2.45054 113.479 2.25109 113.481 1.98443L113.482 1.78444C113.484 1.50445 113.579 1.27176 113.767 1.08639C113.968 0.88778 114.209 0.789443 114.489 0.79138L116.849 0.807707C117.129 0.809644 117.361 0.911256 117.547 1.11254C117.745 1.30059 117.844 1.53461 117.842 1.8146L117.84 2.07459C117.839 2.26126 117.904 2.43505 118.036 2.59597C118.169 2.74355 118.368 2.81827 118.635 2.82011L118.835 2.8215C119.115 2.82343 119.347 2.92504 119.533 3.12633C119.731 3.31438 119.83 3.5484 119.828 3.82839L119.756 14.1881C119.754 14.4548 119.653 14.6874 119.451 14.8861C119.263 15.0848 119.029 15.1831 118.749 15.1812L118.389 15.1787C118.109 15.1768 117.87 15.0818 117.671 14.8937C117.486 14.6924 117.394 14.4518 117.396 14.1718L117.425 9.97192C117.427 9.69192 117.362 9.49147 117.23 9.37055C117.097 9.23629 116.898 9.16825 116.631 9.1664L114.591 9.15229C114.311 9.15035 114.104 9.21559 113.97 9.34799C113.849 9.48049 113.787 9.68007 113.785 9.94673L113.756 14.1466C113.755 14.4133 113.653 14.6459 113.452 14.8445C113.264 15.0432 113.03 15.1416 112.75 15.1397ZM113.827 3.90688L113.813 5.98683C113.811 6.26682 113.876 6.47394 114.009 6.6082C114.141 6.72912 114.341 6.7905 114.607 6.79234L116.647 6.80646C116.927 6.80839 117.128 6.74311 117.249 6.61061C117.383 6.4782 117.451 6.27867 117.453 6.01201L117.467 3.93206C117.471 3.42541 117.219 3.17033 116.712 3.16682L114.592 3.15215C114.086 3.14865 113.831 3.40022 113.827 3.90688Z"/>
<path d="M100.997 14.0584L101.082 1.69865C101.084 1.41866 101.179 1.18598 101.367 1.00061C101.568 0.801996 101.809 0.703659 102.089 0.705596L106.449 0.735758C106.729 0.737696 106.962 0.839308 107.147 1.04059C107.346 1.22864 107.444 1.46266 107.442 1.74265L107.44 2.00265C107.439 2.18931 107.504 2.3631 107.637 2.52402C107.769 2.6716 107.968 2.74632 108.235 2.74816L108.435 2.74955C108.715 2.75148 108.948 2.8531 109.133 3.05438C109.332 3.24243 109.43 3.47645 109.428 3.75644L109.412 6.11639C109.41 6.39638 109.308 6.63568 109.107 6.83429C108.919 7.01966 108.685 7.11138 108.405 7.10944L108.005 7.10668C107.858 7.10566 107.718 7.15802 107.584 7.26377C107.463 7.3696 107.402 7.53585 107.4 7.76251L107.398 8.1425C107.397 8.28916 107.449 8.42953 107.555 8.5636C107.661 8.68433 107.827 8.74548 108.054 8.74705L108.394 8.7494C108.674 8.75134 108.906 8.85295 109.092 9.05424C109.29 9.24229 109.389 9.47631 109.387 9.7563L109.357 14.1162C109.355 14.3829 109.253 14.6155 109.052 14.8141C108.864 15.0128 108.63 15.1112 108.35 15.1093L107.99 15.1068C107.71 15.1048 107.47 15.0098 107.272 14.8218C107.086 14.6205 106.995 14.3799 106.997 14.0999L107.026 9.85997C107.029 9.35331 106.778 9.09824 106.271 9.09473L104.191 9.08034C103.911 9.0784 103.704 9.14364 103.57 9.27605C103.449 9.40855 103.388 9.60813 103.386 9.87479L103.357 14.0747C103.355 14.3413 103.253 14.574 103.052 14.7726C102.864 14.9713 102.63 15.0697 102.35 15.0677L101.99 15.0653C101.71 15.0633 101.47 14.9683 101.272 14.7803C101.086 14.579 100.995 14.3384 100.997 14.0584ZM104.208 6.7204L106.287 6.73479C106.794 6.73829 107.049 6.48672 107.053 5.98006L107.067 3.86011C107.071 3.35346 106.819 3.09838 106.313 3.09487L104.233 3.08048C103.699 3.07679 103.431 3.34161 103.427 3.87493L103.413 5.91488C103.411 6.19487 103.476 6.402 103.609 6.53625C103.741 6.65717 103.941 6.71855 104.208 6.7204Z"/>
<path d="M91.593 13.9933L91.6785 1.6336C91.6805 1.3536 91.7754 1.12092 91.9634 0.935551C92.1648 0.736939 92.4054 0.638602 92.6854 0.640539L98.0453 0.67762C98.312 0.679464 98.5446 0.781076 98.7432 0.982456C98.9419 1.1705 99.0403 1.40452 99.0384 1.68451L99.0359 2.04451C99.0339 2.3245 98.9323 2.5638 98.7309 2.76241C98.5429 2.94778 98.309 3.0395 98.029 3.03756L94.8291 3.01543C94.2957 3.01174 94.0272 3.27655 94.0235 3.80987L94.0094 5.84982C94.0075 6.12982 94.0727 6.33694 94.2051 6.47119C94.3376 6.59211 94.5372 6.65349 94.8039 6.65534L97.0038 6.67056C97.2705 6.6724 97.5031 6.77402 97.7017 6.97539C97.9004 7.16344 97.9988 7.39746 97.9969 7.67745L97.9944 8.03744C97.9924 8.31744 97.8908 8.55674 97.6894 8.75535C97.5015 8.94072 97.2675 9.03244 96.9875 9.0305L94.7875 9.01528C94.5076 9.01335 94.3004 9.07858 94.1662 9.21099C94.0453 9.34349 93.9839 9.54307 93.982 9.80973L93.9679 11.8497C93.9642 12.383 94.229 12.6515 94.7624 12.6552L97.9623 12.6773C98.2289 12.6792 98.4616 12.7808 98.6602 12.9822C98.8589 13.1702 98.9573 13.4042 98.9553 13.6842L98.9529 14.0442C98.9509 14.3242 98.8493 14.5635 98.6479 14.7621C98.4599 14.9475 98.226 15.0392 97.946 15.0373L92.5861 15.0002C92.3061 14.9983 92.0667 14.9033 91.868 14.7152C91.6828 14.5139 91.5911 14.2733 91.593 13.9933Z"/>
<path d="M81.1933 13.9214L81.2788 1.56165C81.2807 1.28166 81.3757 1.04897 81.5636 0.863603C81.765 0.664991 82.0057 0.566653 82.2857 0.568591L86.6456 0.598753C86.9256 0.60069 87.1582 0.702303 87.3435 0.90359C87.5422 1.09164 87.6406 1.32565 87.6386 1.60565L87.6368 1.86564C87.6355 2.0523 87.701 2.22609 87.8332 2.38701C87.9655 2.5346 88.165 2.60931 88.4317 2.61116L88.6317 2.61254C88.9117 2.61448 89.1443 2.71609 89.3296 2.91738C89.5283 3.10542 89.6267 3.33944 89.6248 3.61944L89.6084 5.97938C89.6065 6.25937 89.5048 6.49868 89.3034 6.69729C89.1155 6.88266 88.8815 6.97438 88.6015 6.97244L88.3415 6.97064C88.1549 6.96935 87.9811 7.03481 87.8202 7.16704C87.6726 7.29935 87.5979 7.49884 87.596 7.7655L87.5946 7.9655C87.5927 8.24549 87.491 8.48479 87.2897 8.6834C87.1017 8.86877 86.8677 8.96049 86.5877 8.95856L84.3878 8.94334C84.1078 8.9414 83.9007 9.00663 83.7664 9.13904C83.6455 9.27154 83.5841 9.47112 83.5823 9.73778L83.5532 13.9377C83.5514 14.2043 83.4498 14.437 83.2484 14.6356C83.0603 14.8343 82.8263 14.9327 82.5463 14.9307L82.1863 14.9282C81.9063 14.9263 81.667 14.8313 81.4683 14.6433C81.283 14.442 81.1913 14.2013 81.1933 13.9214ZM86.5093 2.95787L84.4293 2.94348C83.896 2.93979 83.6275 3.2046 83.6238 3.73792L83.6097 5.77788C83.6077 6.05787 83.673 6.26499 83.8054 6.39924C83.9379 6.52016 84.1375 6.58155 84.4041 6.58339L86.4841 6.59778C86.9907 6.60129 87.2458 6.34971 87.2493 5.84306L87.264 3.72311C87.2675 3.21645 87.0159 2.96137 86.5093 2.95787Z"/>
<path d="M70.8074 11.8495L70.8652 3.48965C70.8671 3.20966 70.9621 2.97698 71.15 2.79161C71.3514 2.593 71.5921 2.49466 71.8721 2.4966L72.1321 2.49839C72.3188 2.49969 72.4859 2.43417 72.6335 2.30186C72.7944 2.16963 72.8758 1.97019 72.8776 1.70353L72.879 1.50354C72.8809 1.22354 72.9759 0.990862 73.1638 0.805491C73.3652 0.606879 73.6059 0.508542 73.8859 0.510479L76.2458 0.526805C76.5258 0.528742 76.7585 0.630355 76.9437 0.831642C77.1424 1.01969 77.2408 1.25371 77.2389 1.5337L77.2371 1.79369C77.2358 1.98036 77.3013 2.15415 77.4335 2.31507C77.5658 2.46265 77.7653 2.53737 78.032 2.53921L78.2319 2.54059C78.5119 2.54253 78.7446 2.64414 78.9298 2.84543C79.1286 3.03348 79.2269 3.26749 79.225 3.54749L79.1672 11.9073C79.1652 12.1873 79.0636 12.4266 78.8622 12.6252C78.6742 12.8106 78.4403 12.9023 78.1603 12.9003L77.9003 12.8985C77.7136 12.8973 77.5398 12.9627 77.3789 13.0949C77.2313 13.2273 77.1566 13.4267 77.1548 13.6934L77.1534 13.8934C77.1514 14.1734 77.0498 14.4127 76.8484 14.6113C76.6604 14.7967 76.4265 14.8884 76.1465 14.8865L73.7865 14.8701C73.5065 14.8682 73.2672 14.7732 73.0685 14.5852C72.8832 14.3839 72.7915 14.1432 72.7935 13.8632L72.7953 13.6032C72.7966 13.4166 72.7311 13.2495 72.5987 13.1019C72.4665 12.941 72.2671 12.8596 72.0004 12.8577L71.8004 12.8563C71.5204 12.8544 71.2811 12.7594 71.0824 12.5714C70.8971 12.3701 70.8054 12.1294 70.8074 11.8495ZM73.2243 3.62598L73.1681 11.7458C73.1646 12.2524 73.4162 12.5075 73.9229 12.511L76.0428 12.5257C76.5495 12.5292 76.8045 12.2776 76.8081 11.771L76.8642 3.65116C76.8677 3.1445 76.6162 2.88942 76.1095 2.88592L73.9896 2.87125C73.4829 2.86775 73.2278 3.11932 73.2243 3.62598Z"/>
<path d="M57.343 14.7564L56.983 14.7539C56.703 14.7519 56.4637 14.657 56.265 14.4689C56.0797 14.2676 55.988 14.027 55.99 13.747L56.0755 1.38729C56.0773 1.12063 56.1723 0.887944 56.3603 0.689241C56.5617 0.490628 56.8024 0.392291 57.0824 0.394228L57.4424 0.396718C57.7224 0.398655 57.955 0.500268 58.1403 0.701555C58.339 0.889601 58.4374 1.12362 58.4354 1.40361L58.4064 5.60351C58.4044 5.88351 58.4697 6.09063 58.6021 6.22488C58.7346 6.3458 58.9342 6.40718 59.2008 6.40903L61.2408 6.42314C61.5208 6.42508 61.7212 6.3598 61.8421 6.2273C61.9764 6.09489 62.0444 5.89536 62.0463 5.62869L62.0753 1.42879C62.0772 1.16213 62.1721 0.929453 62.3602 0.730749C62.5616 0.532137 62.8022 0.433799 63.0822 0.435736L63.4422 0.438227C63.7222 0.440164 63.9549 0.541776 64.1401 0.743063C64.3388 0.931109 64.4372 1.16513 64.4353 1.44512L64.3498 13.8048C64.3479 14.0715 64.2463 14.3041 64.0449 14.5027C63.8569 14.7014 63.6229 14.7998 63.3429 14.7979L62.9829 14.7954C62.7029 14.7935 62.4636 14.6985 62.2648 14.5104C62.0796 14.3091 61.9879 14.0685 61.9898 13.7885L62.0189 9.5886C62.0208 9.30861 61.9555 9.10815 61.823 8.98723C61.6906 8.85298 61.4911 8.78493 61.2244 8.78309L59.1845 8.76897C58.9045 8.76704 58.6974 8.83227 58.5631 8.96468C58.4422 9.09718 58.3808 9.29676 58.379 9.56342L58.3499 13.7633C58.3481 14.03 58.2465 14.2626 58.0451 14.4612C57.857 14.6599 57.623 14.7583 57.343 14.7564Z"/>
<path d="M48.951 14.6983L48.591 14.6958C48.311 14.6939 48.0717 14.5989 47.873 14.4109C47.6877 14.2096 47.596 13.9689 47.598 13.6889L47.6685 3.48918C47.6722 2.95586 47.4074 2.68735 46.8741 2.68366L44.6742 2.66844C44.4075 2.6666 44.1748 2.57165 43.9761 2.38361C43.7775 2.18223 43.6792 1.94154 43.6811 1.66155L43.6836 1.30156C43.6855 1.02156 43.7805 0.788881 43.9684 0.60351C44.1698 0.404898 44.4105 0.30656 44.6905 0.308498L53.0503 0.366333C53.3169 0.368178 53.5496 0.46979 53.7482 0.671169C53.9469 0.859215 54.0453 1.09323 54.0433 1.37323L54.0409 1.73322C54.0389 2.01321 53.9373 2.25251 53.7359 2.45113C53.5479 2.6365 53.3139 2.72821 53.034 2.72628L50.834 2.71106C50.3007 2.70737 50.0322 2.97218 50.0285 3.5055L49.9579 13.7053C49.9561 13.9719 49.8545 14.2046 49.6531 14.4032C49.465 14.6019 49.231 14.7003 48.951 14.6983Z"/>
<path d="M33.2122 11.5894L33.27 3.22956C33.2719 2.94957 33.3669 2.71688 33.5548 2.53151C33.7562 2.3329 33.9969 2.23457 34.2769 2.2365L34.5369 2.2383C34.7236 2.23959 34.8907 2.17408 35.0383 2.04176C35.1992 1.90954 35.2806 1.7101 35.2824 1.44344L35.2838 1.24344C35.2857 0.963451 35.3807 0.730769 35.5686 0.545398C35.77 0.346786 36.0107 0.248449 36.2907 0.250386L38.6506 0.266712C38.9306 0.268649 39.1633 0.370262 39.3485 0.571549C39.5472 0.759595 39.6456 0.993614 39.6437 1.27361L39.6419 1.5336C39.6406 1.72026 39.7061 1.89405 39.8383 2.05497C39.9706 2.20256 40.1701 2.27727 40.4367 2.27912L40.6367 2.2805C40.9167 2.28244 41.1494 2.38405 41.3347 2.58534C41.5334 2.77338 41.6317 3.0074 41.6298 3.2874L41.572 11.6472C41.57 11.9272 41.4684 12.1665 41.267 12.3651C41.079 12.5505 40.8451 12.6422 40.5651 12.6403L40.3051 12.6385C40.1184 12.6372 39.9446 12.7026 39.7837 12.8349C39.6361 12.9672 39.5614 13.1667 39.5596 13.4333L39.5582 13.6333C39.5562 13.9133 39.4546 14.1526 39.2532 14.3512C39.0653 14.5366 38.8313 14.6283 38.5513 14.6264L36.1913 14.61C35.9113 14.6081 35.672 14.5131 35.4733 14.3251C35.288 14.1238 35.1963 13.8831 35.1983 13.6031L35.2001 13.3432C35.2014 13.1565 35.1359 12.9894 35.0035 12.8418C34.8713 12.6809 34.6719 12.5995 34.4052 12.5976L34.2052 12.5963C33.9252 12.5943 33.6859 12.4993 33.4872 12.3113C33.3019 12.11 33.2102 11.8694 33.2122 11.5894ZM35.6291 3.36588L35.5729 11.4857C35.5694 11.9923 35.821 12.2474 36.3277 12.2509L38.4476 12.2656C38.9543 12.2691 39.2093 12.0175 39.2129 11.5109L39.269 3.39107C39.2725 2.88441 39.021 2.62933 38.5143 2.62583L36.3944 2.61116C35.8877 2.60765 35.6326 2.85923 35.6291 3.36588Z"/>
<path d="M22.8124 11.5174L22.8703 3.15761C22.8722 2.87762 22.9671 2.64494 23.1551 2.45957C23.3565 2.26095 23.5972 2.16262 23.8771 2.16455L24.1371 2.16635C24.3238 2.16764 24.4909 2.10213 24.6385 1.96982C24.7994 1.83759 24.8808 1.63815 24.8827 1.37149L24.884 1.1715C24.886 0.891503 24.9809 0.658821 25.1689 0.47345C25.3703 0.274838 25.6109 0.176501 25.8909 0.178438L28.2509 0.194764C28.5309 0.196701 28.7635 0.298314 28.9488 0.499601C29.1475 0.687647 29.2459 0.921666 29.2439 1.20166L29.2421 1.46165C29.2408 1.64831 29.3063 1.82211 29.4385 1.98302C29.5709 2.13061 29.7703 2.20532 30.037 2.20717L30.237 2.20855C30.517 2.21049 30.7496 2.3121 30.9349 2.51339C31.1336 2.70143 31.232 2.93545 31.2301 3.21545L31.1722 11.5752C31.1703 11.8552 31.0686 12.0945 30.8672 12.2932C30.6793 12.4785 30.4453 12.5702 30.1653 12.5683L29.9053 12.5665C29.7187 12.5652 29.5449 12.6307 29.384 12.7629C29.2364 12.8952 29.1617 13.0947 29.1598 13.3614L29.1584 13.5614C29.1565 13.8414 29.0548 14.0807 28.8535 14.2793C28.6655 14.4646 28.4315 14.5564 28.1515 14.5544L25.7916 14.5381C25.5116 14.5362 25.2723 14.4412 25.0735 14.2531C24.8883 14.0518 24.7966 13.8112 24.7985 13.5312L24.8003 13.2712C24.8016 13.0845 24.7361 12.9174 24.6038 12.7698C24.4716 12.6089 24.2721 12.5275 24.0055 12.5257L23.8055 12.5243C23.5255 12.5224 23.2861 12.4274 23.0874 12.2393C22.9022 12.038 22.8105 11.7974 22.8124 11.5174ZM25.2294 3.29394L25.1732 11.4137C25.1697 11.9204 25.4213 12.1755 25.9279 12.179L28.0479 12.1936C28.5545 12.1972 28.8096 11.9456 28.8131 11.4389L28.8693 3.31912C28.8728 2.81246 28.6212 2.55738 28.1146 2.55388L25.9946 2.53921C25.488 2.53571 25.2329 2.78728 25.2294 3.29394Z"/>
<path d="M11.7597 14.441L11.3997 14.4385C11.1198 14.4366 10.8804 14.3416 10.6817 14.1536C10.4964 13.9523 10.4048 13.7116 10.4067 13.4316L10.4922 1.07193C10.494 0.80527 10.589 0.572588 10.777 0.373884C10.9784 0.175272 11.2191 0.0769343 11.4991 0.0788714L11.8591 0.0813619C12.1391 0.083299 12.3717 0.184911 12.557 0.386198C12.7557 0.574244 12.8541 0.808263 12.8521 1.08826L12.8508 1.28825C12.8489 1.55491 12.9075 1.75532 13.0266 1.88948C13.159 2.02374 13.3652 2.09183 13.6452 2.09377L13.8452 2.09515C14.1252 2.09709 14.3578 2.1987 14.5431 2.39999C14.7418 2.58803 14.8402 2.82205 14.8383 3.10205L14.8355 3.50204C14.8345 3.6487 14.8868 3.78906 14.9926 3.92313C15.0984 4.04387 15.2647 4.10502 15.4913 4.10659L15.8713 4.10922C16.018 4.11023 16.1517 4.05782 16.2724 3.95199C16.4065 3.84625 16.4743 3.68004 16.4759 3.45338L16.4782 3.11339C16.4802 2.8334 16.5751 2.60071 16.7631 2.41534C16.9644 2.21673 17.2051 2.1184 17.4851 2.12033L17.6851 2.12172C17.9651 2.12365 18.1656 2.05837 18.2865 1.92587C18.4207 1.79346 18.4888 1.59393 18.4906 1.32727L18.492 1.12727C18.4939 0.860614 18.5888 0.627932 18.7768 0.429229C18.9782 0.230617 19.2189 0.132279 19.4989 0.134216L19.8589 0.136707C20.1389 0.138644 20.3715 0.240256 20.5568 0.441543C20.7555 0.629589 20.8539 0.863608 20.852 1.1436L20.7664 13.5033C20.7646 13.77 20.663 14.0026 20.4616 14.2012C20.2736 14.3999 20.0395 14.4983 19.7595 14.4964L19.3996 14.4939C19.1196 14.4919 18.8802 14.3969 18.6815 14.2089C18.4962 14.0076 18.4046 13.767 18.4065 13.487L18.4642 5.14718C18.4672 4.70719 18.2488 4.48567 17.8088 4.48263L17.4488 4.48014C17.0355 4.47728 16.8274 4.68251 16.8245 5.09583L16.808 7.47578C16.8062 7.74244 16.7046 7.97507 16.5032 8.17368C16.3152 8.37239 16.0811 8.47077 15.8012 8.46884L15.4412 8.46635C15.1612 8.46441 14.9218 8.36942 14.7231 8.18137C14.5378 7.98008 14.4462 7.73944 14.4481 7.45945L14.4646 5.07951C14.4674 4.66618 14.2622 4.45809 13.8489 4.45523L13.4889 4.45274C13.0489 4.4497 12.8274 4.66817 12.8243 5.10816L12.7666 13.448C12.7648 13.7146 12.6632 13.9473 12.4618 14.1459C12.2738 14.3446 12.0397 14.443 11.7597 14.441Z"/>
<path d="M5.28141 8.39606L3.04146 8.38056C2.76147 8.37862 2.52212 8.28363 2.32341 8.09559C2.13814 7.8943 2.04646 7.65366 2.0484 7.37367L2.0502 7.11367C2.05149 6.92701 1.98598 6.75989 1.85366 6.6123C1.72144 6.45138 1.522 6.37 1.25534 6.36816L1.05534 6.36677C0.77535 6.36483 0.536002 6.26984 0.337298 6.0818C0.152019 5.88051 0.0603486 5.63987 0.0622856 5.35988L0.0786123 2.99993C0.0805494 2.71994 0.175495 2.48726 0.363448 2.30189C0.564827 2.10328 0.805513 2.00494 1.08551 2.00688L1.3455 2.00867C1.53216 2.00997 1.69929 1.94445 1.84687 1.81214C2.00779 1.67992 2.08917 1.48047 2.09102 1.21381L2.0924 1.01382C2.09434 0.733825 2.18928 0.501143 2.37724 0.315772C2.57862 0.11716 2.8193 0.0188224 3.09929 0.0207595L5.45924 0.0370862C5.73923 0.0390232 5.97187 0.140635 6.15715 0.341923C6.35585 0.529968 6.45423 0.763988 6.4523 1.04398L6.4505 1.30397C6.44921 1.49064 6.51467 1.66443 6.6469 1.82535C6.77921 1.97293 6.9787 2.04765 7.24536 2.04949L7.44535 2.05088C7.72535 2.05281 7.95798 2.15442 8.14326 2.35571C8.34197 2.54376 8.44035 2.77778 8.43841 3.05777L8.43592 3.41776C8.43408 3.68442 8.33247 3.91706 8.13109 4.11567C7.94304 4.31437 7.70902 4.41276 7.42903 4.41082L7.06904 4.40833C6.78904 4.40639 6.54969 4.3114 6.35099 4.12335C6.16571 3.92207 6.07404 3.68143 6.07598 3.40143L6.07764 3.16144C6.08114 2.65479 5.82957 2.39971 5.32291 2.3962L3.20297 2.38153C2.69631 2.37803 2.44123 2.6296 2.43773 3.13626L2.42306 5.25621C2.41955 5.76286 2.67113 6.01794 3.17778 6.02145L5.41773 6.03694C5.69772 6.03888 5.93036 6.14049 6.11564 6.34178C6.31434 6.52982 6.41273 6.76384 6.41079 7.04384L6.40899 7.30383C6.4077 7.49049 6.47316 7.66428 6.60539 7.8252C6.7377 7.97279 6.93719 8.0475 7.20385 8.04935L7.40385 8.05073C7.68384 8.05267 7.91648 8.15428 8.10176 8.35557C8.30046 8.54361 8.39884 8.77763 8.3969 9.05763L8.38058 11.4176C8.37864 11.6976 8.27698 11.9369 8.0756 12.1355C7.88765 12.3208 7.65368 12.4126 7.37368 12.4106L7.11369 12.4088C6.92703 12.4075 6.75324 12.473 6.59232 12.6052C6.44473 12.7375 6.37002 12.937 6.36817 13.2037L6.36679 13.4037C6.36485 13.6837 6.26319 13.923 6.06182 14.1216C5.87386 14.307 5.63989 14.3987 5.35989 14.3967L2.99995 14.3804C2.71996 14.3785 2.48061 14.2835 2.28191 14.0954C2.09663 13.8942 2.00496 13.6535 2.00689 13.3735L2.00869 13.1135C2.00998 12.9269 1.94447 12.7597 1.81216 12.6122C1.67993 12.4512 1.48049 12.3699 1.21383 12.368L1.01384 12.3666C0.733842 12.3647 0.494493 12.2697 0.295789 12.0817C0.110511 11.8804 0.0188401 11.6397 0.0207771 11.3597L0.0232676 10.9997C0.0251125 10.7331 0.120058 10.5004 0.308104 10.3017C0.509482 10.1031 0.750169 10.0047 1.03016 10.0067L1.39015 10.0092C1.67015 10.0111 1.90278 10.1127 2.08806 10.314C2.28676 10.5021 2.38515 10.7361 2.38321 11.0161L2.38155 11.2561C2.37805 11.7627 2.62962 12.0178 3.13628 12.0213L5.25622 12.036C5.76288 12.0395 6.01796 11.7879 6.02146 11.2812L6.03613 9.1613C6.03964 8.65464 5.78806 8.39956 5.28141 8.39606Z"/>
</g>
</svg>
