<svg preserveAspectRatio="xMidYMid meet" width="100%" height="100%" overflow="visible" style="display: block;" viewBox="0 0 20 20" fill="none" xmlns="http://www.w3.org/2000/svg">
<path id="Subtract" d="M10 0C11.7873 0 12.6809 0.000420516 13.3604 0.355469C13.9253 0.650693 14.3864 1.11181 14.6816 1.67676C15.2205 2.70798 15.4915 3.22516 15.5088 3.25684C16.2768 4.65556 15.3444 3.72316 16.7432 4.49121C16.7741 4.50813 17.2913 4.77911 18.3232 5.31836C18.8882 5.61357 19.3493 6.07473 19.6445 6.63965C19.9996 7.3191 20 8.21272 20 10C20 11.7873 19.9996 12.6809 19.6445 13.3604C19.3493 13.9253 18.8882 14.3864 18.3232 14.6816C17.2883 15.2225 16.7704 15.4933 16.7422 15.5088C15.3443 16.2763 16.2763 15.3444 15.5088 16.7422C15.4933 16.7704 15.2224 17.2883 14.6816 18.3232C14.3864 18.8882 13.9253 19.3493 13.3604 19.6445C12.6809 19.9996 11.7873 20 10 20C8.21267 20 7.31911 19.9996 6.63965 19.6445C6.07472 19.3493 5.61358 18.8882 5.31836 18.3232C4.77899 17.291 4.50801 16.7739 4.49121 16.7432C3.72316 15.3444 4.65556 16.2768 3.25684 15.5088C3.22537 15.4916 2.7082 15.2206 1.67676 14.6816C1.1118 14.3864 0.650691 13.9253 0.355469 13.3604C0.00041992 12.6809 -7.81053e-08 11.7873 0 10C7.91424e-08 8.21272 0.000424492 7.3191 0.355469 6.63965C0.650695 6.07473 1.11184 5.61357 1.67676 5.31836C2.70868 4.77913 3.22584 4.50815 3.25684 4.49121C4.65555 3.72317 3.72317 4.65555 4.49121 3.25684C4.50853 3.22511 4.77953 2.70793 5.31836 1.67676C5.61359 1.11181 6.0747 0.650691 6.63965 0.355469C7.31911 0.000419892 8.21267 0 10 0ZM9.08887 4.40527C6.88105 4.40527 5.77674 4.405 5.09082 5.09082C4.40491 5.77673 4.40527 6.88094 4.40527 9.08887V10.9111C4.40527 13.1191 4.40491 14.2233 5.09082 14.9092C5.77674 15.5951 6.88099 15.5947 9.08887 15.5947H10.9111C13.119 15.5947 14.2233 15.5951 14.9092 14.9092C15.595 14.2233 15.5947 13.119 15.5947 10.9111V9.08887C15.5947 6.88099 15.5951 5.77674 14.9092 5.09082C14.2233 4.40491 13.119 4.40527 10.9111 4.40527H9.08887Z" fill="var(--fill-0, white)"/>
</svg>
